<svg xmlns="http://www.w3.org/2000/svg" viewBox="0 0 24 19"><defs><clipPath id="a"><path d="M1.371 1.3281h21.8165v16.3633H1.3711Zm0 0"/></clipPath><clipPath id="b"><path d="M6 1.3281h17.1875v16.3633H6Zm0 0"/></clipPath></defs><path d="M1.371 17.6914h21.8165V1.3281H1.3711Zm0 0" style="stroke:none;fill-rule:nonzero;fill:#fff;fill-opacity:1"/><g clip-path="url(#a)"><path d="M-8.073-1.3767c4.047 4.8242 12.0977 4.8242 16.1485 0M.0013-5.3455l6.293 7.914" style="fill:none;stroke-width:.79701;stroke-linecap:butt;stroke-linejoin:miter;stroke:#000;stroke-opacity:1;stroke-miterlimit:10" transform="matrix(1 0 0 -1 12.28 9.51)"/></g><path d="M19.7734 5.4375c-.1953.1445-1.1171.7383-1.8203 1.0117l1.2422.9844c.1055-.7422.4766-1.7734.5781-1.9961Zm0 0" style="stroke:none;fill-rule:nonzero;fill:#000;fill-opacity:1"/><g clip-path="url(#b)"><path d="M1.924-.0022C1.6893.0607.6508.4128-.001.7928l.0027-1.585c.6466.3795 1.6848.7309 1.9223.79Zm0 0" style="fill:none;stroke-width:.78903;stroke-linecap:butt;stroke-linejoin:miter;stroke:#000;stroke-opacity:1;stroke-miterlimit:10" transform="matrix(.6 -.8 -.8 -.6 18.5742 6.942)"/></g><path d="M-10.909-8.1814h21.8165V8.1819h-21.8164Zm0 0" style="fill:none;stroke-width:.79701;stroke-linecap:butt;stroke-linejoin:miter;stroke:#000;stroke-opacity:1;stroke-miterlimit:10" transform="matrix(1 0 0 -1 12.28 9.51)"/></svg>