<svg xmlns="http://www.w3.org/2000/svg" xmlns:xlink="http://www.w3.org/1999/xlink" viewBox="0 0 121 32"><defs><symbol id="c" overflow="visible"><path d="M1.734-7.781c0-.203 0-.39-.218-.39-.22 0-.22.187-.22.39v10.11c0 .202 0 .39.22.39.218 0 .218-.188.218-.39Zm0 0" style="stroke:none"/></symbol><symbol id="g" overflow="visible"><path d="M2.984-2.547c.047-.125.047-.14.047-.172 0-.047 0-.062-.047-.187L1.063-7.922c-.063-.187-.125-.25-.25-.25-.11 0-.22.094-.22.203 0 .047 0 .063.063.188L2.578-2.72.656 2.312c-.062.126-.062.141-.062.204 0 .109.11.203.219.203.14 0 .187-.094.234-.203Zm0 0" style="stroke:none"/></symbol><symbol id="d" overflow="visible"><path d="M3.64-3.297c.063-.281.313-1.281 1.079-1.281.062 0 .312 0 .547.14a.63.63 0 0 0-.516.594c0 .172.11.375.406.375.25 0 .594-.203.594-.625 0-.578-.64-.734-1.016-.734-.64 0-1.015.578-1.14.844-.281-.735-.875-.844-1.188-.844-1.125 0-1.75 1.422-1.75 1.687 0 .11.11.11.125.11.094 0 .125-.016.14-.125.376-1.156 1.095-1.422 1.47-1.422.203 0 .593.094.593.734 0 .328-.187 1.063-.593 2.594-.172.672-.563 1.125-1.032 1.125-.078 0-.328 0-.546-.14a.603.603 0 0 0 .5-.579c0-.297-.235-.39-.391-.39-.328 0-.61.28-.61.64 0 .5.547.719 1.032.719.718 0 1.11-.766 1.14-.828.141.39.532.828 1.188.828 1.11 0 1.734-1.406 1.734-1.688 0-.109-.093-.109-.125-.109-.093 0-.125.047-.14.125C4.78-.375 4.03-.125 3.687-.125c-.421 0-.593-.344-.593-.719 0-.234.062-.469.172-.953Zm0 0" style="stroke:none"/></symbol><symbol id="k" overflow="visible"><path d="M5.297-4.156c.047-.157.047-.172.047-.25 0-.203-.157-.297-.313-.297a.488.488 0 0 0-.39.234 5.75 5.75 0 0 0-.141.594c-.078.281-.156.578-.219.86l-.5 1.968c-.047.156-.515.922-1.234.922C2-.125 1.875-.594 1.875-1c0-.5.188-1.188.563-2.14.171-.454.218-.563.218-.782 0-.5-.36-.906-.906-.906C.719-4.828.312-3.234.312-3.141c0 .11.11.11.141.11.11 0 .11-.016.172-.203.297-1.016.734-1.344 1.094-1.344.093 0 .281 0 .281.344 0 .28-.11.562-.188.765-.437 1.156-.64 1.781-.64 2.297 0 .969.687 1.297 1.344 1.297.421 0 .78-.188 1.093-.5-.14.578-.265 1.11-.703 1.688-.281.359-.703.687-1.203.687-.156 0-.64-.031-.828-.469.172 0 .313 0 .469-.125a.576.576 0 0 0 .218-.453c0-.328-.296-.375-.406-.375-.25 0-.61.172-.61.703 0 .547.485.953 1.157.953 1.125 0 2.25-.984 2.547-2.218Zm0 0" style="stroke:none"/></symbol><symbol id="e" overflow="visible"><path d="M1.547-4.906c0-.235-.172-.453-.438-.453a.437.437 0 0 0-.437.437.45.45 0 0 0 .437.453.436.436 0 0 0 .438-.437ZM.359-3.422v.266c.516 0 .579.047.579.437v2.094c0 .36-.094.36-.61.36V0c.313-.031.766-.031.89-.031.095 0 .579 0 .86.031v-.266c-.531 0-.562-.03-.562-.343v-2.907Zm0 0" style="stroke:none"/></symbol><symbol id="f" overflow="visible"><path d="M3.875-2.422c0-.656-.313-1.094-1.14-1.094a1.38 1.38 0 0 0-1.25.766v-.766l-1.157.094v.266c.547 0 .61.047.61.437v2.094c0 .36-.094.36-.61.36V0c.344-.031.688-.031.906-.031.235 0 .563 0 .907.031v-.266c-.5 0-.61 0-.61-.359v-1.438c0-.843.64-1.234 1.125-1.234s.61.344.61.844v1.828c0 .36-.094.36-.61.36V0c.344-.031.703-.031.906-.031.235 0 .579 0 .922.031v-.266c-.515 0-.609 0-.609-.359Zm0 0" style="stroke:none"/></symbol><symbol id="h" overflow="visible"><path d="M3.984-1.703c0-.984-.828-1.844-1.875-1.844-1.046 0-1.875.86-1.875 1.844 0 1 .86 1.781 1.875 1.781 1.032 0 1.875-.781 1.875-1.781ZM2.11-.172c-.421 0-.765-.203-.937-.484-.203-.328-.219-.719-.219-1.11 0-.312 0-.78.235-1.125.218-.28.546-.437.921-.437.422 0 .766.203.938.469.219.343.234.765.234 1.093 0 .36-.015.797-.25 1.141-.203.313-.562.453-.922.453Zm0 0" style="stroke:none"/></symbol><symbol id="i" overflow="visible"><path d="M2.656-3.422v.266c.547 0 .61.047.61.437v1.39C3.266-.64 2.859-.14 2.25-.14c-.688 0-.719-.343-.719-.75v-2.625l-1.203.094v.266c.61 0 .61.015.61.719v1.203c0 .578 0 1.312 1.265 1.312.75 0 1.047-.578 1.078-.64h.016v.64L4.484 0v-.266c-.546 0-.609-.046-.609-.437v-2.813Zm0 0" style="stroke:none"/></symbol><symbol id="j" overflow="visible"><path d="M1.484-3.172h1.188v-.265H1.484v-1.47h-.25c0 .735-.328 1.485-1.078 1.516v.22h.719V-1c0 .938.719 1.078 1.078 1.078.547 0 .86-.469.86-1.078v-.438h-.25v.422c0 .547-.25.844-.547.844-.532 0-.532-.687-.532-.812Zm0 0" style="stroke:none"/></symbol><clipPath id="a"><path d="M53 21h10v10H53Zm0 0"/></clipPath><clipPath id="b"><path d="M62.238 25.969a4.227 4.227 0 1 0-8.454 0 4.227 4.227 0 0 0 8.454 0Zm0 0"/></clipPath></defs><path d="M59.504 5.875c0-.828-.668-1.496-1.492-1.496-.825 0-1.496.668-1.496 1.496a1.495 1.495 0 0 0 2.988 0Zm0 0" style="stroke:none;fill-rule:nonzero;fill:#000;fill-opacity:1"/><g clip-path="url(#a)"><g clip-path="url(#b)"><path d="M0 4.226v-8.453M-4.225-.001h8.453" style="fill:none;stroke-width:.3985;stroke-linecap:butt;stroke-linejoin:miter;stroke:#000;stroke-opacity:1;stroke-miterlimit:10" transform="matrix(1 0 0 -1 58.011 25.968)"/></g></g><path d="M4.227 0a4.227 4.227 0 1 1-8.454-.001 4.227 4.227 0 0 1 8.454 0Zm0 0" style="fill:none;stroke-width:.3985;stroke-linecap:butt;stroke-linejoin:miter;stroke:#000;stroke-opacity:1;stroke-miterlimit:10" transform="matrix(1 0 0 -1 58.011 25.968)"/><path d="M-18.6 11.512h-14.173M-1.495 11.512h-17.106M0 10.02V-4.355M18.598 11.512H1.493M32.774 11.512H18.598M-18.6-8.582h-14.173M-4.226-8.582H-18.6M18.598-8.582H4.228M32.774-8.582H18.598" style="fill:none;stroke-width:.3985;stroke-linecap:butt;stroke-linejoin:miter;stroke:#000;stroke-opacity:1;stroke-miterlimit:10" transform="matrix(1 0 0 -1 58.011 17.387)"/><use xlink:href="#c" x="-.357" y="8.601" style="fill:#000;fill-opacity:1"/><use xlink:href="#d" x="2.674" y="8.601" style="fill:#000;fill-opacity:1"/><g style="fill:#000;fill-opacity:1"><use xlink:href="#e" x="8.909" y="10.238"/><use xlink:href="#f" x="11.261" y="10.238"/></g><use xlink:href="#g" x="16.464" y="8.601" style="fill:#000;fill-opacity:1"/><use xlink:href="#c" x="95.317" y="8.601" style="fill:#000;fill-opacity:1"/><use xlink:href="#d" x="98.347" y="8.601" style="fill:#000;fill-opacity:1"/><g style="fill:#000;fill-opacity:1"><use xlink:href="#h" x="104.582" y="10.238"/><use xlink:href="#i" x="108.817" y="10.238"/><use xlink:href="#j" x="113.521" y="10.238"/></g><use xlink:href="#g" x="117.312" y="8.601" style="fill:#000;fill-opacity:1"/><use xlink:href="#c" x=".53" y="28.695" style="fill:#000;fill-opacity:1"/><use xlink:href="#k" x="3.56" y="28.695" style="fill:#000;fill-opacity:1"/><g style="fill:#000;fill-opacity:1"><use xlink:href="#e" x="8.909" y="30.331"/><use xlink:href="#f" x="11.261" y="30.331"/></g><use xlink:href="#g" x="16.464" y="28.695" style="fill:#000;fill-opacity:1"/><use xlink:href="#c" x="95.317" y="28.695" style="fill:#000;fill-opacity:1"/><use xlink:href="#k" x="98.347" y="28.695" style="fill:#000;fill-opacity:1"/><g style="fill:#000;fill-opacity:1"><use xlink:href="#h" x="103.696" y="30.331"/><use xlink:href="#i" x="107.931" y="30.331"/><use xlink:href="#j" x="112.635" y="30.331"/></g><use xlink:href="#g" x="116.426" y="28.695" style="fill:#000;fill-opacity:1"/></svg>