<svg xmlns="http://www.w3.org/2000/svg" xmlns:xlink="http://www.w3.org/1999/xlink" viewBox="0 0 231 101"><defs><symbol id="c" overflow="visible"><path d="M1.734-7.781c0-.203 0-.39-.218-.39-.22 0-.22.187-.22.39v10.11c0 .202 0 .39.22.39.218 0 .218-.188.218-.39Zm0 0" style="stroke:none"/></symbol><symbol id="e" overflow="visible"><path d="M2.984-2.547c.047-.125.047-.14.047-.172 0-.047 0-.062-.047-.187L1.063-7.922c-.063-.187-.125-.25-.25-.25-.11 0-.22.094-.22.203 0 .047 0 .063.063.188L2.578-2.72.656 2.312c-.062.126-.062.141-.062.204 0 .109.11.203.219.203.14 0 .187-.094.234-.203Zm0 0" style="stroke:none"/></symbol><symbol id="l" overflow="visible"><path d="M7.188-2.516c.187 0 .375 0 .375-.203 0-.219-.188-.219-.375-.219H1.28c-.187 0-.375 0-.375.22 0 .202.188.202.375.202Zm0 0" style="stroke:none"/></symbol><symbol id="d" overflow="visible"><path d="M5.016-3.484c0-.875-.047-1.75-.438-2.563-.5-1.047-1.39-1.219-1.86-1.219-.64 0-1.437.282-1.89 1.297-.344.75-.406 1.61-.406 2.485 0 .812.047 1.796.5 2.625A2.004 2.004 0 0 0 2.719.234c.578 0 1.422-.218 1.89-1.265.36-.75.407-1.594.407-2.453ZM2.719 0C2.297 0 1.64-.266 1.453-1.313c-.125-.656-.125-1.671-.125-2.312 0-.688 0-1.406.094-2 .203-1.297 1.016-1.406 1.297-1.406.36 0 1.078.203 1.281 1.281.11.61.11 1.438.11 2.125 0 .828 0 1.563-.126 2.266C3.828-.33 3.204 0 2.72 0Zm0 0" style="stroke:none"/></symbol><symbol id="k" overflow="visible"><path d="M2.094-.578a.587.587 0 0 0-.578-.578.587.587 0 0 0-.579.578c0 .312.266.578.579.578a.587.587 0 0 0 .578-.578Zm0 0" style="stroke:none"/></symbol><symbol id="f" overflow="visible"><path d="M8.328-6.61c.094-.39.11-.5.906-.5.282 0 .375 0 .375-.218 0-.125-.125-.125-.156-.125-.297 0-1.094.031-1.39.031-.313 0-1.094-.031-1.407-.031-.093 0-.203 0-.203.219 0 .125.094.125.297.125.016 0 .234 0 .422.015.187.032.281.032.281.172 0 .047 0 .078-.031.219l-.656 2.656H3.437l.641-2.562c.094-.391.125-.5.922-.5.281 0 .36 0 .36-.22 0-.124-.11-.124-.141-.124-.313 0-1.094.031-1.407.031-.312 0-1.093-.031-1.406-.031-.078 0-.203 0-.203.219 0 .125.094.125.313.125.015 0 .218 0 .406.015.203.032.297.032.297.172 0 .047-.016.078-.047.219L1.719-.843c-.11.421-.14.5-1 .5-.188 0-.297 0-.297.218C.422 0 .562 0 .578 0c.313 0 1.078-.031 1.39-.031.22 0 .47.015.688.015.25 0 .485.016.719.016.078 0 .219 0 .219-.219 0-.125-.11-.125-.313-.125-.406 0-.703 0-.703-.187 0-.063.016-.125.031-.188l.735-2.984h3.328c-.453 1.812-.703 2.844-.75 3-.11.36-.313.36-1 .36-.156 0-.25 0-.25.218 0 .125.125.125.156.125.297 0 1.078-.031 1.375-.031.234 0 .469.015.703.015.235 0 .485.016.703.016.094 0 .22 0 .22-.219 0-.125-.095-.125-.298-.125-.406 0-.718 0-.718-.187 0-.063.03-.125.03-.188Zm0 0" style="stroke:none"/></symbol><symbol id="i" overflow="visible"><path d="M6.922-6.297c.11-.453.312-.781 1.187-.812.047 0 .172-.016.172-.22 0-.015 0-.124-.14-.124-.36 0-.735.031-1.11.031-.375 0-.765-.031-1.125-.031-.078 0-.203 0-.203.219 0 .125.11.125.203.125.61.015.735.234.735.484 0 .031-.016.188-.032.219l-.984 3.89C5.25-1.046 4-.094 2.906-.094c-.734 0-1.328-.484-1.328-1.422 0-.015 0-.375.125-.843l1.063-4.25c.093-.391.109-.5.906-.5.281 0 .375 0 .375-.22 0-.124-.125-.124-.156-.124-.297 0-1.094.031-1.391.031-.313 0-1.094-.031-1.406-.031-.094 0-.203 0-.203.219 0 .125.093.125.296.125.016 0 .235 0 .422.015.188.032.282.032.282.172 0 .078-.11.531-.172.781l-.25.954c-.094.437-.625 2.5-.657 2.703-.078.296-.078.468-.078.625C.734-.531 1.72.234 2.875.234 4.25.234 5.594-1 5.953-2.437Zm0 0" style="stroke:none"/></symbol><symbol id="g" overflow="visible"><path d="M6.11-1.984a2.824 2.824 0 0 0-2.813-2.829A2.827 2.827 0 0 0 .469-1.983a2.82 2.82 0 0 0 5.64 0ZM1.561-3.891a2.544 2.544 0 0 1 1.72-.671c.484 0 1.171.14 1.734.671l-1.72 1.72ZM1.391-.266C.937-.734.719-1.375.719-1.984c0-.61.219-1.266.672-1.735l1.718 1.735Zm3.796-3.453c.454.469.672 1.11.672 1.735 0 .593-.218 1.25-.671 1.718L3.452-1.984ZM5.016-.094a2.544 2.544 0 0 1-1.72.672c-.483 0-1.171-.14-1.733-.672L3.28-1.812Zm0 0" style="stroke:none"/></symbol><symbol id="h" overflow="visible"><path d="M1.594-1.313c.031-.109.11-.421.125-.53.11-.438.11-.438.297-.704.265-.39.64-.75 1.171-.75.282 0 .454.172.454.547 0 .438-.329 1.344-.485 1.734-.11.266-.11.313-.11.422 0 .453.376.672.72.672.78 0 1.109-1.11 1.109-1.219 0-.078-.063-.109-.125-.109-.094 0-.11.063-.125.14-.188.657-.531.97-.828.97-.125 0-.188-.079-.188-.266 0-.188.063-.36.141-.563.11-.297.469-1.219.469-1.656 0-.61-.422-.89-.985-.89-.656 0-1.062.39-1.296.687-.063-.438-.407-.688-.813-.688-.281 0-.484.188-.61.438a2.882 2.882 0 0 0-.28.781c0 .078.062.11.124.11.11 0 .11-.032.172-.25.094-.391.235-.86.563-.86.218 0 .265.203.265.375 0 .156-.046.297-.109.563-.016.062-.14.53-.172.64L.781-.516C.75-.39.703-.203.703-.172c0 .188.156.25.266.25.14 0 .265-.094.312-.187.032-.047.094-.329.125-.485Zm0 0" style="stroke:none"/></symbol><symbol id="j" overflow="visible"><path d="M3.047-3.172h.75c.156 0 .25 0 .25-.156 0-.11-.11-.11-.234-.11h-.72c.141-.718.22-1.171.298-1.53.03-.126.046-.22.171-.313.11-.094.172-.11.25-.11.126 0 .25.032.36.094-.047.016-.094.031-.125.063a.436.436 0 0 0-.234.375c0 .187.14.296.312.296a.471.471 0 0 0 .453-.484c0-.375-.39-.562-.766-.562-.28 0-.78.125-1.03.859-.079.188-.079.203-.282 1.313h-.61c-.156 0-.25 0-.25.156 0 .11.11.11.235.11h.578L1.875-.079c-.156.797-.266 1.484-.703 1.484-.016 0-.188 0-.328-.093.36-.094.36-.422.36-.438 0-.188-.141-.297-.313-.297a.47.47 0 0 0-.454.485c0 .343.344.562.735.562.5 0 .828-.516.937-.703.282-.531.47-1.531.485-1.61Zm0 0" style="stroke:none"/></symbol><clipPath id="a"><path d="M200.703 30h29.887v25.371h-29.887Zm0 0"/></clipPath><clipPath id="b"><path d="M204 27.988h26.59v27.383H204Zm0 0"/></clipPath></defs><path d="M200.703 55.371h29.887V27.988h-29.887Zm0 0" style="stroke:none;fill-rule:nonzero;fill:#fff;fill-opacity:1"/><g clip-path="url(#a)"><path d="M-12.108-5.187c6.07 7.234 18.145 7.234 24.219 0" style="fill:none;stroke-width:.79701;stroke-linecap:butt;stroke-linejoin:miter;stroke:#000;stroke-opacity:1;stroke-miterlimit:10" transform="matrix(1 0 0 -1 215.647 41.68)"/></g><g clip-path="url(#b)"><path d="m.001-10.855 6.801 17.37" style="fill:none;stroke-width:.79701;stroke-linecap:butt;stroke-linejoin:miter;stroke:#000;stroke-opacity:1;stroke-miterlimit:10" transform="matrix(1 0 0 -1 215.647 41.68)"/></g><path d="M224.152 30.824c-.746 1.192-2.289 3-3.699 4.117l3.617 1.414c-.277-1.777-.183-4.148.082-5.53" style="stroke:none;fill-rule:nonzero;fill:#000;fill-opacity:1"/><path d="M-14.944-13.691h29.887v27.383h-29.887Zm0 0" style="fill:none;stroke-width:.79701;stroke-linecap:butt;stroke-linejoin:miter;stroke:#000;stroke-opacity:1;stroke-miterlimit:10" transform="matrix(1 0 0 -1 215.647 41.68)"/><path d="M-91.357 40.256h-14.171M-91.357 26.67h-14.171M-91.357-18.299h-14.171M-47.036 40.256h-14.172M-32.86 40.256h-14.176M-32.86 26.67h-14.176M-32.86-18.299h-14.176M-32.86-40.26h-14.176M2.175 40.256h-14.172M16.35 40.256H2.175M16.35 26.67H2.175M16.35-18.299H2.175M60.67 40.256H46.5M-91.357 26.67h-14.171M-47.036 26.67h-14.172M-32.86 26.67h-14.176M2.175 26.67h-14.172M16.35 26.67H2.175M60.67 26.67H46.5M-91.357-18.299h-14.171M-47.036-18.299h-14.172M-32.86-18.299h-14.176M2.175-18.299h-14.172M16.35-18.299H2.175M60.67-18.299H46.5M-76.282-40.26h-29.246M-47.036-40.26h-29.246M-32.86-40.26h-14.176M2.175-40.26h-14.172M31.425-40.26H2.175M60.67-40.26H31.426" style="fill:none;stroke-width:.79701;stroke-linecap:butt;stroke-linejoin:miter;stroke:#000;stroke-opacity:1;stroke-miterlimit:10" transform="matrix(1 0 0 -1 125.462 50.053)"/><use xlink:href="#c" x="2.674" y="12.522" style="fill:#000;fill-opacity:1"/><use xlink:href="#d" x="5.704" y="12.522" style="fill:#000;fill-opacity:1"/><use xlink:href="#e" x="11.159" y="12.522" style="fill:#000;fill-opacity:1"/><path d="M-91.357-26.67h30.149v75.301h-30.149Zm0 0" style="fill-rule:nonzero;fill:#fff;fill-opacity:1;stroke-width:.79701;stroke-linecap:butt;stroke-linejoin:miter;stroke:#000;stroke-opacity:1;stroke-miterlimit:10" transform="matrix(1 0 0 -1 125.462 50.053)"/><use xlink:href="#f" x="38.092" y="43.46" style="fill:#000;fill-opacity:1"/><use xlink:href="#g" x="48.047" y="39.502" style="fill:#000;fill-opacity:1"/><use xlink:href="#h" x="54.633" y="39.502" style="fill:#000;fill-opacity:1"/><path d="M-32.86-49.635h20.863v99.27H-32.86Zm0 0" style="fill-rule:nonzero;fill:#fff;fill-opacity:1;stroke-width:.79701;stroke-linecap:butt;stroke-linejoin:miter;stroke:#000;stroke-opacity:1;stroke-miterlimit:10" transform="matrix(1 0 0 -1 125.462 50.053)"/><use xlink:href="#i" x="96.586" y="52.116" style="fill:#000;fill-opacity:1"/><use xlink:href="#j" x="104.035" y="53.894" style="fill:#000;fill-opacity:1"/><path d="M16.35-26.67H46.5v75.301H16.35Zm0 0" style="fill-rule:nonzero;fill:#fff;fill-opacity:1;stroke-width:.79701;stroke-linecap:butt;stroke-linejoin:miter;stroke:#000;stroke-opacity:1;stroke-miterlimit:10" transform="matrix(1 0 0 -1 125.462 50.053)"/><use xlink:href="#f" x="145.796" y="43.46" style="fill:#000;fill-opacity:1"/><use xlink:href="#g" x="155.75" y="39.502" style="fill:#000;fill-opacity:1"/><use xlink:href="#h" x="162.337" y="39.502" style="fill:#000;fill-opacity:1"/><path d="M64.202 43.291c.746-.37 1.246-1.246 1.246-2.488V13.471c0-1.246.5-2.117 1.246-2.492-.746-.371-1.246-1.246-1.246-2.488v-27.333c0-1.246-.5-2.117-1.246-2.492" style="fill:none;stroke-width:.79701;stroke-linecap:butt;stroke-linejoin:miter;stroke:#000;stroke-opacity:1;stroke-miterlimit:10" transform="matrix(1 0 0 -1 125.462 50.053)"/><use xlink:href="#c" x="2.674" y="26.109" style="fill:#000;fill-opacity:1"/><use xlink:href="#d" x="5.704" y="26.109" style="fill:#000;fill-opacity:1"/><use xlink:href="#e" x="11.159" y="26.109" style="fill:#000;fill-opacity:1"/><use xlink:href="#k" x="12.371" y="41.26" style="fill:#000;fill-opacity:1"/><use xlink:href="#k" x="12.371" y="45.245" style="fill:#000;fill-opacity:1"/><use xlink:href="#k" x="12.371" y="49.23" style="fill:#000;fill-opacity:1"/><use xlink:href="#k" x="70.865" y="41.26" style="fill:#000;fill-opacity:1"/><use xlink:href="#k" x="70.865" y="45.245" style="fill:#000;fill-opacity:1"/><use xlink:href="#k" x="70.865" y="49.23" style="fill:#000;fill-opacity:1"/><use xlink:href="#k" x="120.075" y="41.26" style="fill:#000;fill-opacity:1"/><use xlink:href="#k" x="120.075" y="45.245" style="fill:#000;fill-opacity:1"/><use xlink:href="#k" x="120.075" y="49.23" style="fill:#000;fill-opacity:1"/><use xlink:href="#c" x="2.674" y="71.079" style="fill:#000;fill-opacity:1"/><use xlink:href="#d" x="5.704" y="71.079" style="fill:#000;fill-opacity:1"/><use xlink:href="#e" x="11.159" y="71.079" style="fill:#000;fill-opacity:1"/><g style="fill:#000;fill-opacity:1"><use xlink:href="#c" x="-.356" y="93.037"/><use xlink:href="#l" x="2.675" y="93.037"/><use xlink:href="#e" x="11.16" y="93.037"/></g></svg>