<svg xmlns="http://www.w3.org/2000/svg" xmlns:xlink="http://www.w3.org/1999/xlink" viewBox="0 0 115 18"><defs><symbol id="d" overflow="visible"><path d="M1.734-7.781c0-.203 0-.39-.218-.39-.22 0-.22.187-.22.39v10.11c0 .202 0 .39.22.39.218 0 .218-.188.218-.39Zm0 0" style="stroke:none"/></symbol><symbol id="f" overflow="visible"><path d="M2.984-2.547c.047-.125.047-.14.047-.172 0-.047 0-.062-.047-.187L1.063-7.922c-.063-.187-.125-.25-.25-.25-.11 0-.22.094-.22.203 0 .047 0 .063.063.188L2.578-2.72.656 2.312c-.062.126-.062.141-.062.204 0 .109.11.203.219.203.14 0 .187-.094.234-.203Zm0 0" style="stroke:none"/></symbol><symbol id="e" overflow="visible"><path d="M5.25-7.281c.016-.047.047-.11.047-.172 0-.11-.078-.11-.14-.11-.11 0-.126.016-.157.22L3.187-.142c-.828-.093-1.25-.5-1.25-1.218 0-.22 0-.5.594-2.032.047-.125.125-.312.125-.53 0-.5-.36-.907-.906-.907C.719-4.828.312-3.234.312-3.141c0 .11.11.11.141.11.11 0 .11-.016.172-.203.297-1.032.734-1.344 1.094-1.344.093 0 .281 0 .281.344 0 .28-.11.562-.25.937-.531 1.375-.531 1.656-.531 1.844 0 1.031.86 1.484 1.906 1.547-.094.39-.094.422-.25 1-.031.11-.25 1-.25 1.031 0 .016 0 .11.14.11.016 0 .063 0 .094-.047.032-.016.094-.297.125-.438L3.406.125c.406 0 1.36 0 2.39-1.172.438-.5.673-.984.798-1.312.093-.266.328-1.22.328-1.704 0-.609-.297-.765-.469-.765-.281 0-.547.297-.547.531 0 .14.063.203.157.297.125.125.39.406.39.922 0 .703-.562 1.594-.953 1.984-.953.969-1.656.969-2.047.969Zm0 0" style="stroke:none"/></symbol><symbol id="g" overflow="visible"><path d="M6.922-6.297c.11-.453.312-.781 1.187-.812.047 0 .172-.016.172-.22 0-.015 0-.124-.14-.124-.36 0-.735.031-1.11.031-.375 0-.765-.031-1.125-.031-.078 0-.203 0-.203.219 0 .125.11.125.203.125.61.015.735.234.735.484 0 .031-.016.188-.032.219l-.984 3.89C5.25-1.046 4-.094 2.906-.094c-.734 0-1.328-.484-1.328-1.422 0-.015 0-.375.125-.843l1.063-4.25c.093-.391.109-.5.906-.5.281 0 .375 0 .375-.22 0-.124-.125-.124-.156-.124-.297 0-1.094.031-1.391.031-.313 0-1.094-.031-1.406-.031-.094 0-.203 0-.203.219 0 .125.093.125.296.125.016 0 .235 0 .422.015.188.032.282.032.282.172 0 .078-.11.531-.172.781l-.25.954c-.094.437-.625 2.5-.657 2.703-.078.296-.078.468-.078.625C.734-.531 1.72.234 2.875.234 4.25.234 5.594-1 5.953-2.437Zm0 0" style="stroke:none"/></symbol><clipPath id="a"><path d="M92.445 1h21.82v16h-21.82Zm0 0"/></clipPath><clipPath id="b"><path d="M97 .879h17.266v16.363H97Zm0 0"/></clipPath><clipPath id="c"><path d="M103 .879h11.266V12H103Zm0 0"/></clipPath></defs><path d="M92.445 17.242h21.82V.88h-21.82Zm0 0" style="stroke:none;fill-rule:nonzero;fill:#fff;fill-opacity:1"/><g clip-path="url(#a)"><path d="M-8.074-1.377c4.047 4.824 12.102 4.824 16.149 0" style="fill:none;stroke-width:.3985;stroke-linecap:butt;stroke-linejoin:miter;stroke:#000;stroke-opacity:1;stroke-miterlimit:10" transform="matrix(1 0 0 -1 103.355 9.06)"/></g><g clip-path="url(#b)"><path d="m0-5.346 6.844 8.605" style="fill:none;stroke-width:.3985;stroke-linecap:butt;stroke-linejoin:miter;stroke:#000;stroke-opacity:1;stroke-miterlimit:10" transform="matrix(1 0 0 -1 103.355 9.06)"/></g><path d="M111.348 4.355c-.188.145-1.059.723-1.723.993l1.145.91c.113-.707.48-1.688.578-1.903Zm0 0" style="stroke:none;fill-rule:nonzero;fill:#000;fill-opacity:1"/><g clip-path="url(#c)"><path d="M1.849 0C1.619.057.624.38-.001.731V-.73C.625-.38 1.62-.057 1.85 0Zm0 0" style="fill:none;stroke-width:.3985;stroke-linecap:butt;stroke-linejoin:miter;stroke:#000;stroke-opacity:1;stroke-miterlimit:10" transform="scale(.99994 -.99994) rotate(51.508 61.116 111.316)"/></g><path d="M-10.91-8.182h21.82V8.18h-21.82Zm0 0" style="fill:none;stroke-width:.3985;stroke-linecap:butt;stroke-linejoin:miter;stroke:#000;stroke-opacity:1;stroke-miterlimit:10" transform="matrix(1 0 0 -1 103.355 9.06)"/><path d="M-33.588-1.317H-47.76M-19.412-1.317h-14.176M11.37-1.317H-2.804M25.74-1.317H11.37" style="fill:none;stroke-width:.3985;stroke-linecap:butt;stroke-linejoin:miter;stroke:#000;stroke-opacity:1;stroke-miterlimit:10" transform="matrix(1 0 0 -1 66.705 7.742)"/><use xlink:href="#d" x="-.357" y="11.787" style="fill:#000;fill-opacity:1"/><use xlink:href="#e" x="2.674" y="11.787" style="fill:#000;fill-opacity:1"/><use xlink:href="#f" x="10.171" y="11.787" style="fill:#000;fill-opacity:1"/><path d="M-19.412-9.5h16.61V6.863h-16.61Zm0 0" style="fill-rule:nonzero;fill:#fff;fill-opacity:1;stroke-width:.3985;stroke-linecap:butt;stroke-linejoin:miter;stroke:#000;stroke-opacity:1;stroke-miterlimit:10" transform="matrix(1 0 0 -1 66.705 7.742)"/><use xlink:href="#g" x="51.278" y="12.787" style="fill:#000;fill-opacity:1"/></svg>